<?xml version="1.0" encoding="UTF-8" standalone="no"?>
<!-- Created with Inkscape (http://www.inkscape.org/) -->

<svg
   width="101.93073mm"
   height="14.233753mm"
   viewBox="0 0 101.93073 14.233753"
   version="1.1"
   id="svg1"
   inkscape:version="1.3.2 (091e20ef0f, 2023-11-25, custom)"
   sodipodi:docname="rule_ls.svg"
   xmlns:inkscape="http://www.inkscape.org/namespaces/inkscape"
   xmlns:sodipodi="http://sodipodi.sourceforge.net/DTD/sodipodi-0.dtd"
   xmlns="http://www.w3.org/2000/svg"
   xmlns:svg="http://www.w3.org/2000/svg">
  <sodipodi:namedview
     id="namedview1"
     pagecolor="#ffffff"
     bordercolor="#666666"
     borderopacity="1.0"
     inkscape:showpageshadow="2"
     inkscape:pageopacity="0.0"
     inkscape:pagecheckerboard="0"
     inkscape:deskcolor="#d1d1d1"
     inkscape:document-units="mm"
     inkscape:zoom="2.5661922"
     inkscape:cx="279.98682"
     inkscape:cy="92.744416"
     inkscape:window-width="1890"
     inkscape:window-height="991"
     inkscape:window-x="26"
     inkscape:window-y="23"
     inkscape:window-maximized="0"
     inkscape:current-layer="layer1" />
  <defs
     id="defs1" />
  <g
     inkscape:label="Layer 1"
     inkscape:groupmode="layer"
     id="layer1"
     transform="translate(7.6729159,-94.191667)">
    <path
       id="path255"
       d="m 12.797152,101.25273 c 0.132292,0.0579 0.276986,0.0579 0.355534,0.0579 0.111621,0 0.330729,0 0.330729,-0.12402 0,-0.0744 -0.07855,-0.10335 -0.293522,-0.10335 -0.107487,0 -0.23151,0.0124 -0.380339,0.0744 -0.132291,-0.062 -0.181901,-0.16123 -0.181901,-0.25218 0,-0.26045 0.413412,-0.41341 0.789616,-0.41341 0.07028,0 0.223242,0 0.401009,0.12816 0.02481,0.0207 0.03721,0.0331 0.06615,0.0331 0.04961,0 0.103353,-0.0579 0.103353,-0.10749 0,-0.0744 -0.243913,-0.23564 -0.533301,-0.23564 -0.471289,0 -0.917773,0.28112 -0.917773,0.59531 0,0.1571 0.09922,0.25218 0.169499,0.30179 -0.243913,0.14056 -0.384473,0.36794 -0.384473,0.57464 0,0.28939 0.260449,0.5209 0.665592,0.5209 0.553972,0 0.777214,-0.36794 0.777214,-0.42995 0,-0.0207 -0.01654,-0.0372 -0.03721,-0.0372 -0.02067,0 -0.02894,0.0124 -0.04547,0.0372 -0.04548,0.0827 -0.157097,0.25218 -0.657325,0.25218 -0.260449,0 -0.607714,-0.0703 -0.607714,-0.36793 0,-0.1447 0.103352,-0.35967 0.380338,-0.50437 z m 0.128158,-0.0496 c 0.115755,-0.0372 0.223242,-0.0372 0.256315,-0.0372 0.115755,0 0.136425,0.008 0.206705,0.0248 -0.07441,0.0331 -0.08268,0.0331 -0.235644,0.0331 -0.07441,0 -0.14056,0 -0.227376,-0.0207 z m 0,0"
       style="fill:#000000;fill-opacity:1;fill-rule:nonzero;stroke:none;stroke-width:0.352778"
       aria-label="ε" />
    <path
       id="path256"
       d="m -6.1639646,101.01709 c 0,-0.31833 -0.2397786,-0.65732 -0.8102864,-0.65732 -0.1736328,0 -0.5829101,0 -0.5829101,0.29352 0,0.11162 0.078548,0.17363 0.1694987,0.17363 0.028939,0 0.1653645,-0.008 0.1694987,-0.1819 0,-0.0248 0.00413,-0.0289 0.095085,-0.0372 0.049609,-0.004 0.1033529,-0.004 0.1529622,-0.004 0.099219,0 0.2439128,0 0.3803386,0.10749 0.1529622,0.11575 0.1529622,0.23564 0.1529622,0.35966 -0.2480469,0.008 -0.4919596,0.0248 -0.7565429,0.10749 -0.2108399,0.0703 -0.4795573,0.22324 -0.4795573,0.5085 0,0.30179 0.2645833,0.55397 0.6573242,0.55397 0.1364258,0 0.3968749,-0.0207 0.615983,-0.17363 0.086816,0.14056 0.2976563,0.14882 0.4547526,0.14882 0.1033528,0 0.2025716,0 0.2025716,-0.12402 0,-0.11989 -0.107487,-0.11989 -0.1694987,-0.11989 -0.107487,0 -0.1901692,-0.008 -0.252181,-0.0331 z m -0.2728515,0.64079 c 0,0.0992 0,0.18603 -0.1736328,0.26872 -0.1488281,0.0703 -0.3431315,0.0703 -0.359668,0.0703 -0.2480468,0 -0.4299479,-0.13643 -0.4299479,-0.31006 0,-0.24805 0.4547526,-0.38861 0.9632487,-0.38861 z m 0,0"
       style="fill:#000000;fill-opacity:1;fill-rule:nonzero;stroke:none;stroke-width:0.352778"
       aria-label="a" />
    <path
       id="path257"
       d="m 32.769058,100.1944 c 0,-0.13229 -0.0248,-0.17363 -0.169499,-0.17363 h -0.276985 c -0.05788,0 -0.169499,0 -0.169499,0.11989 0,0.12402 0.111621,0.12402 0.169499,0.12402 h 0.173633 v 2.15801 c 0,0.0785 0,0.17363 0.140559,0.17363 0.132292,0 0.132292,-0.0868 0.132292,-0.21084 0.103353,0.11576 0.256315,0.23565 0.496094,0.23565 0.446484,0 0.839225,-0.40101 0.839225,-0.93431 0,-0.5209 -0.355534,-0.93431 -0.79375,-0.93431 -0.310058,0 -0.504362,0.18603 -0.541569,0.22738 z m 0,1.28158 c 0,-0.23978 0.235645,-0.47956 0.51263,-0.47956 0.301791,0 0.545703,0.31006 0.545703,0.6904 0,0.40514 -0.285253,0.6904 -0.587044,0.6904 -0.314193,0 -0.471289,-0.35967 -0.471289,-0.57051 z m 0,0"
       style="fill:#000000;fill-opacity:1;fill-rule:nonzero;stroke:none;stroke-width:0.352778"
       aria-label="b" />
    <g
       id="g257"
       aria-label="R&#10;7−→"
       transform="matrix(0.35277776,0,0,0.35277776,42.077646,100.68389)">
      <path
         id="path258"
         d="m 3.7745859,-2.7058828 c 0.6210938,-0.1640625 1.3945313,-0.6210938 1.3945313,-1.3007813 0,-0.7851562 -1.0195313,-1.4296875 -2.203125,-1.4296875 H 0.36442969 v 0.2578125 h 0.17578125 c 0.62109376,0 0.63281246,0.082031 0.63281246,0.3867188 v 4.14843749 c 0,0.29296875 -0.011719,0.38671875 -0.63281246,0.38671875 H 0.36442969 v 0.2578125 c 0.67968751,-0.0234375 0.69140621,-0.0234375 1.16015621,-0.0234375 0.46875,0 0.4804688,0 1.1601563,0.0234375 v -0.2578125 H 2.5089609 c -0.609375,0 -0.6328125,-0.09375 -0.6328125,-0.38671875 V -2.6121328 h 1.0078125 c 0.5859375,0 0.8554688,0.2929687 0.9140625,0.3632812 0.2226563,0.2460938 0.2226563,0.3984375 0.2226563,0.9375 0,0.50390629 0,0.85546879 0.3398437,1.14843754 0.3398438,0.29296875 0.7851563,0.328125 1.0195313,0.328125 0.65625,0 0.8203125,-0.64453125 0.8203125,-0.890625 0,-0.046875 0,-0.15234375 -0.1289063,-0.15234375 -0.1054687,0 -0.1054687,0.09375 -0.1171875,0.140625 -0.035156,0.50390625 -0.3164062,0.6796875 -0.5390625,0.6796875 -0.4335937,0 -0.4804687,-0.36328125 -0.6210937,-1.37109379 -0.058594,-0.4570312 -0.140625,-1.0078125 -1.0195313,-1.2773437 z M 2.8605234,-2.8347891 h -0.984375 v -2.015625 c 0,-0.2109375 0.011719,-0.2929687 0.1992188,-0.3164062 0.082031,-0.011719 0.328125,-0.011719 0.4921875,-0.011719 0.7148437,0 1.7695312,0 1.7695312,1.171875 0,0.8789063 -0.6328125,1.171875 -1.4765625,1.1718752 z m 0,0"
         style="fill:#000000;fill-opacity:1;fill-rule:nonzero;stroke:none" />
      <path
         id="path259"
         d="m -5.3806875,4.0236094 c 0.070312,0 0.328125,0 0.328125,-0.234375 0,-0.234375 -0.2578125,-0.234375 -0.328125,-0.234375 V 1.9845469 c 0,-0.1875 0,-0.421875 -0.234375,-0.421875 -0.2460937,0 -0.2460937,0.234375 -0.2460937,0.421875 v 3.609375 c 0,0.1875 0,0.421875 0.2460937,0.421875 0.234375,0 0.234375,-0.234375 0.234375,-0.421875 z m 6.7382813,0 c 0.2109375,0 0.421875,0 0.421875,-0.234375 0,-0.234375 -0.2109375,-0.234375 -0.421875,-0.234375 h -6.46875 c -0.1992188,0 -0.4101563,0 -0.4101563,0.234375 0,0.234375 0.2109375,0.234375 0.4101563,0.234375 z m 9.4013672,0 c -0.65625,0.5039062 -0.9843751,0.9960937 -1.0781251,1.1484375 -0.5390625,0.8320312 -0.6328125,1.5820312 -0.6328125,1.59375 0,0.140625 0.140625,0.140625 0.234375,0.140625 0.2109375,0 0.2226563,-0.023437 0.2695313,-0.234375 0.2695312,-1.171875 0.9726563,-2.1796875 2.3320313,-2.7304688 0.140625,-0.046875 0.175781,-0.070312 0.175781,-0.1523437 0,-0.082031 -0.07031,-0.1171875 -0.09375,-0.1289063 C 11.438648,3.4493906 9.9855234,2.8517344 9.5402109,0.84782812 9.5050547,0.70720312 9.4933359,0.67204687 9.2823984,0.67204687 c -0.09375,0 -0.234375,0 -0.234375,0.140625 0,0.0234375 0.1054688,0.77343753 0.609375,1.58203123 0.234375,0.3515625 0.5859376,0.7734375 1.1015626,1.1601563 H 1.8761484 c -0.2226562,0 -0.4335937,0 -0.4335937,0.234375 0,0.234375 0.2109375,0.234375 0.4335937,0.234375 z m 0,0"
         style="fill:#000000;fill-opacity:1;fill-rule:nonzero;stroke:none" />
    </g>
    <path
       id="path260"
       d="m 72.797624,101.25273 c 0.132292,0.0579 0.276986,0.0579 0.355534,0.0579 0.111621,0 0.330729,0 0.330729,-0.12402 0,-0.0744 -0.07855,-0.10335 -0.293522,-0.10335 -0.107487,0 -0.23151,0.0124 -0.380338,0.0744 -0.132292,-0.062 -0.181902,-0.16123 -0.181902,-0.25218 0,-0.26045 0.413412,-0.41341 0.789616,-0.41341 0.07028,0 0.223242,0 0.401009,0.12816 0.02481,0.0207 0.03721,0.0331 0.06615,0.0331 0.04961,0 0.103353,-0.0579 0.103353,-0.10749 0,-0.0744 -0.243913,-0.23564 -0.533301,-0.23564 -0.471289,0 -0.917773,0.28112 -0.917773,0.59531 0,0.1571 0.09922,0.25218 0.169499,0.30179 -0.243913,0.14056 -0.384473,0.36794 -0.384473,0.57464 0,0.28939 0.260449,0.5209 0.665592,0.5209 0.553972,0 0.777214,-0.36794 0.777214,-0.42995 0,-0.0207 -0.01654,-0.0372 -0.03721,-0.0372 -0.02067,0 -0.02894,0.0124 -0.04547,0.0372 -0.04548,0.0827 -0.157097,0.25218 -0.657325,0.25218 -0.260449,0 -0.607714,-0.0703 -0.607714,-0.36793 0,-0.1447 0.103353,-0.35967 0.380338,-0.50437 z m 0.128158,-0.0496 c 0.115755,-0.0372 0.223242,-0.0372 0.256315,-0.0372 0.115755,0 0.136426,0.008 0.206706,0.0248 -0.07442,0.0331 -0.08268,0.0331 -0.235645,0.0331 -0.07441,0 -0.14056,0 -0.227376,-0.0207 z m 0,0"
       style="fill:#000000;fill-opacity:1;fill-rule:nonzero;stroke:none;stroke-width:0.352778"
       aria-label="ε" />
    <path
       id="path261"
       d="m 52.750267,101.39743 c 0,-0.31833 -0.239779,-0.65732 -0.810286,-0.65732 -0.173633,0 -0.58291,0 -0.58291,0.29352 0,0.11162 0.07855,0.17363 0.169498,0.17363 0.02894,0 0.165365,-0.008 0.169499,-0.1819 0,-0.0248 0.0041,-0.0289 0.09509,-0.0372 0.04961,-0.004 0.103352,-0.004 0.152962,-0.004 0.09922,0 0.243913,0 0.380338,0.10749 0.152963,0.11575 0.152963,0.23564 0.152963,0.35967 -0.248047,0.008 -0.49196,0.0248 -0.756543,0.10748 -0.21084,0.0703 -0.479558,0.22324 -0.479558,0.5085 0,0.30179 0.264584,0.55397 0.657325,0.55397 0.136425,0 0.396875,-0.0207 0.615983,-0.17363 0.08682,0.14056 0.297656,0.14882 0.454752,0.14882 0.103353,0 0.202572,0 0.202572,-0.12402 0,-0.11989 -0.107487,-0.11989 -0.169499,-0.11989 -0.107487,0 -0.190169,-0.008 -0.252181,-0.0331 z m -0.272851,0.64079 c 0,0.0992 0,0.18603 -0.173633,0.26872 -0.148828,0.0703 -0.343132,0.0703 -0.359668,0.0703 -0.248047,0 -0.429948,-0.13643 -0.429948,-0.31006 0,-0.24805 0.454752,-0.38861 0.963249,-0.38861 z m 1.37666,-1.84382 c 0,-0.13229 -0.02481,-0.17363 -0.169499,-0.17363 h -0.276986 c -0.05788,0 -0.169498,0 -0.169498,0.11989 0,0.12402 0.111621,0.12402 0.169498,0.12402 h 0.173633 v 2.15801 c 0,0.0785 0,0.17363 0.14056,0.17363 0.132292,0 0.132292,-0.0868 0.132292,-0.21084 0.103352,0.11576 0.256315,0.23565 0.496093,0.23565 0.446485,0 0.839226,-0.40101 0.839226,-0.93431 0,-0.5209 -0.355534,-0.93431 -0.79375,-0.93431 -0.310059,0 -0.504362,0.18603 -0.541569,0.22738 z m 0,1.28158 c 0,-0.23978 0.235644,-0.47956 0.51263,-0.47956 0.30179,0 0.545703,0.31006 0.545703,0.6904 0,0.40514 -0.285254,0.6904 -0.587044,0.6904 -0.314193,0 -0.471289,-0.35967 -0.471289,-0.57051 z m 0,0"
       style="fill:#000000;fill-opacity:1;fill-rule:nonzero;stroke:none;stroke-width:0.352778"
       aria-label="ab" />
    <path
       id="path262"
       d="m 93.836132,101.01709 c 0,-0.31833 -0.239779,-0.65732 -0.810287,-0.65732 -0.173632,0 -0.58291,0 -0.58291,0.29352 0,0.11162 0.07855,0.17363 0.169499,0.17363 0.02894,0 0.165364,-0.008 0.169499,-0.1819 0,-0.0248 0.0041,-0.0289 0.09508,-0.0372 0.04961,-0.004 0.103353,-0.004 0.152962,-0.004 0.09922,0 0.243913,0 0.380339,0.10749 0.152962,0.11575 0.152962,0.23564 0.152962,0.35966 -0.248047,0.008 -0.491959,0.0248 -0.756543,0.10749 -0.21084,0.0703 -0.479557,0.22324 -0.479557,0.5085 0,0.30179 0.264583,0.55397 0.657324,0.55397 0.136426,0 0.396875,-0.0207 0.615983,-0.17363 0.08682,0.14056 0.297656,0.14882 0.454753,0.14882 0.103353,0 0.202571,0 0.202571,-0.12402 0,-0.11989 -0.107487,-0.11989 -0.169498,-0.11989 -0.107487,0 -0.19017,-0.008 -0.252181,-0.0331 z m -0.272852,0.64079 c 0,0.0992 0,0.18603 -0.173633,0.26872 -0.148828,0.0703 -0.343131,0.0703 -0.359668,0.0703 -0.248046,0 -0.429947,-0.13643 -0.429947,-0.31006 0,-0.24805 0.454752,-0.38861 0.963248,-0.38861 z m 0,0"
       style="fill:#000000;fill-opacity:1;fill-rule:nonzero;stroke:none;stroke-width:0.352778"
       aria-label="a" />
    <path
       id="path263"
       d="m 10.763715,102.32242 c -5.1044574,2.1467 -9.95098532,2.21533 -14.9259667,0.11082"
       style="fill:none;stroke:#000000;stroke-width:0.140582;stroke-linecap:butt;stroke-linejoin:miter;stroke-miterlimit:10;stroke-dasharray:none;stroke-opacity:1" />
    <path
       id="path264"
       d="m -3.8823144,103.46749 c 0.074158,-0.51815 -0.1068457,-0.85419 -0.34467,-1.06163 0.3144954,0.0262 0.6816979,-0.078 1.0018622,-0.49206"
       style="fill:none;stroke:#000000;stroke-width:0.140578;stroke-linecap:round;stroke-linejoin:round;stroke-miterlimit:10;stroke-dasharray:none;stroke-opacity:1" />
    <path
       id="path265"
       d="m 4.0927745,106.78211 c 0,-0.3514 -0.020671,-0.69453 -0.1736328,-1.01285 -0.1736328,-0.3514 -0.4754232,-0.44235 -0.6821289,-0.44235 -0.2439127,0 -0.5457031,0.11988 -0.6986653,0.47128 -0.1198893,0.26459 -0.1612305,0.52504 -0.1612305,0.98392 0,0.40928 0.028939,0.71521 0.181901,1.01286 0.1612305,0.32246 0.4547526,0.42168 0.6738607,0.42168 0.3679362,0 0.578776,-0.21911 0.6986653,-0.46302 0.1529623,-0.31419 0.1612305,-0.7276 0.1612305,-0.97152 z m -0.8598958,1.35186 c -0.1364258,0 -0.4092773,-0.0744 -0.4878255,-0.53744 -0.049609,-0.25218 -0.049609,-0.5705 -0.049609,-0.86816 0,-0.34313 0,-0.65732 0.07028,-0.90537 0.07028,-0.28112 0.2852539,-0.41341 0.4671549,-0.41341 0.1612304,0 0.4051432,0.0992 0.4836914,0.45888 0.053743,0.23978 0.053743,0.57465 0.053743,0.8599 0,0.28525 0,0.60358 -0.045475,0.8599 -0.078548,0.46715 -0.3431315,0.5457 -0.4919598,0.5457 z m 0,0"
       style="fill:#000000;fill-opacity:1;fill-rule:nonzero;stroke:none;stroke-width:0.352778"
       aria-label="0" />
    <path
       id="path266"
       d="M 10.763715,100.29278 C 5.6592576,98.146083 0.81272968,98.077447 -4.1622517,100.18196"
       style="fill:none;stroke:#000000;stroke-width:0.140582;stroke-linecap:butt;stroke-linejoin:miter;stroke-miterlimit:10;stroke-dasharray:none;stroke-opacity:1" />
    <path
       id="path267"
       d="m -3.2251222,100.7014 c -0.3201643,-0.41409 -0.6873668,-0.51824 -1.0018622,-0.49206 0.2378243,-0.20744 0.4188282,-0.543484 0.34467,-1.061628"
       style="fill:none;stroke:#000000;stroke-width:0.140578;stroke-linecap:round;stroke-linejoin:round;stroke-miterlimit:10;stroke-dasharray:none;stroke-opacity:1" />
    <path
       id="path268"
       d="m 3.4189138,94.499659 c 0,-0.09508 0,-0.09922 -0.086816,-0.09922 -0.099219,0.111621 -0.3100586,0.268717 -0.7441405,0.268717 v 0.124024 c 0.095085,0 0.3059244,0 0.5374348,-0.111622 v 2.195215 c 0,0.152962 -0.012402,0.202572 -0.3803385,0.202572 H 2.6127615 v 0.124023 c 0.1116211,-0.0083 0.5208985,-0.0083 0.6614583,-0.0083 0.1405599,0 0.5457031,0 0.6573242,0.0083 V 97.079347 H 3.8033865 c -0.3720703,0 -0.3844727,-0.04961 -0.3844727,-0.202572 z m 0,0"
       style="fill:#000000;fill-opacity:1;fill-rule:nonzero;stroke:none;stroke-width:0.352778"
       aria-label="1" />
    <path
       id="path269"
       d="m 15.589645,102.32242 c 5.104457,2.1467 9.950985,2.21533 14.925967,0.11082"
       style="fill:none;stroke:#000000;stroke-width:0.140582;stroke-linecap:butt;stroke-linejoin:miter;stroke-miterlimit:10;stroke-dasharray:none;stroke-opacity:1" />
    <path
       id="path270"
       d="m 29.578482,101.9138 c 0.320164,0.41409 0.687367,0.51824 1.001862,0.49206 -0.237824,0.20744 -0.418828,0.54348 -0.34467,1.06163"
       style="fill:none;stroke:#000000;stroke-width:0.140578;stroke-linecap:round;stroke-linejoin:round;stroke-miterlimit:10;stroke-dasharray:none;stroke-opacity:1" />
    <path
       id="path271"
       d="m 23.973731,106.78211 c 0,-0.3514 -0.02067,-0.69453 -0.173633,-1.01285 -0.173633,-0.3514 -0.475423,-0.44235 -0.682129,-0.44235 -0.243913,0 -0.545703,0.11988 -0.698665,0.47128 -0.11989,0.26459 -0.161231,0.52504 -0.161231,0.98392 0,0.40928 0.02894,0.71521 0.181901,1.01286 0.161231,0.32246 0.454753,0.42168 0.673861,0.42168 0.367936,0 0.578776,-0.21911 0.698665,-0.46302 0.152963,-0.31419 0.161231,-0.7276 0.161231,-0.97152 z m -0.859896,1.35186 c -0.136426,0 -0.409277,-0.0744 -0.487826,-0.53744 -0.04961,-0.25218 -0.04961,-0.5705 -0.04961,-0.86816 0,-0.34313 0,-0.65732 0.07028,-0.90537 0.07028,-0.28112 0.285254,-0.41341 0.467155,-0.41341 0.16123,0 0.405143,0.0992 0.483691,0.45888 0.05374,0.23978 0.05374,0.57465 0.05374,0.8599 0,0.28525 0,0.60358 -0.04547,0.8599 -0.07855,0.46715 -0.343132,0.5457 -0.49196,0.5457 z m 0,0"
       style="fill:#000000;fill-opacity:1;fill-rule:nonzero;stroke:none;stroke-width:0.352778"
       aria-label="0" />
    <path
       id="path272"
       d="m 15.589645,100.29278 c 5.104457,-2.146697 9.950985,-2.215333 14.925967,-0.11082"
       style="fill:none;stroke:#000000;stroke-width:0.140582;stroke-linecap:butt;stroke-linejoin:miter;stroke-miterlimit:10;stroke-dasharray:none;stroke-opacity:1" />
    <path
       id="path273"
       d="m 30.235674,99.147712 c -0.07416,0.518144 0.106846,0.854188 0.34467,1.061628 -0.314495,-0.0262 -0.681698,0.078 -1.001862,0.49206"
       style="fill:none;stroke:#000000;stroke-width:0.140578;stroke-linecap:round;stroke-linejoin:round;stroke-miterlimit:10;stroke-dasharray:none;stroke-opacity:1" />
    <path
       id="path274"
       d="m 23.29987,94.499659 c 0,-0.09508 0,-0.09922 -0.08682,-0.09922 -0.09922,0.111621 -0.310059,0.268717 -0.744141,0.268717 v 0.124024 c 0.09509,0 0.305925,0 0.537435,-0.111622 v 2.195215 c 0,0.152962 -0.0124,0.202572 -0.380339,0.202572 h -0.132291 v 0.124023 c 0.111621,-0.0083 0.520898,-0.0083 0.661458,-0.0083 0.14056,0 0.545703,0 0.657324,0.0083 v -0.124023 h -0.128157 c -0.372071,0 -0.384473,-0.04961 -0.384473,-0.202572 z m 0,0"
       style="fill:#000000;fill-opacity:1;fill-rule:nonzero;stroke:none;stroke-width:0.352778"
       aria-label="1" />
    <path
       id="path275"
       d="m 70.764453,102.33141 c -4.736556,2.01026 -9.233739,2.70547 -13.841927,0.64808"
       style="fill:none;stroke:#000000;stroke-width:0.140582;stroke-linecap:butt;stroke-linejoin:miter;stroke-miterlimit:10;stroke-dasharray:none;stroke-opacity:1" />
    <path
       id="path276"
       d="m 57.182006,104.01905 c 0.08436,-0.51657 -0.08997,-0.85612 -0.323658,-1.06821 0.313916,0.0324 0.683099,-0.0645 1.011368,-0.4722"
       style="fill:none;stroke:#000000;stroke-width:0.140577;stroke-linecap:round;stroke-linejoin:round;stroke-miterlimit:10;stroke-dasharray:none;stroke-opacity:1" />
    <path
       id="path277"
       d="m 64.635847,106.99088 c 0,-0.35139 -0.02067,-0.69453 -0.173633,-1.01285 -0.173633,-0.3514 -0.475423,-0.44235 -0.682129,-0.44235 -0.243913,0 -0.545703,0.11989 -0.698665,0.47129 -0.119889,0.26458 -0.161231,0.52503 -0.161231,0.98391 0,0.40928 0.02894,0.71521 0.181901,1.01286 0.161231,0.32246 0.454753,0.42168 0.673861,0.42168 0.367936,0 0.578776,-0.21911 0.698665,-0.46302 0.152963,-0.31419 0.161231,-0.7276 0.161231,-0.97152 z m -0.859896,1.35186 c -0.136426,0 -0.409277,-0.0744 -0.487825,-0.53743 -0.04961,-0.25219 -0.04961,-0.57051 -0.04961,-0.86817 0,-0.34313 0,-0.65732 0.07028,-0.90537 0.07028,-0.28112 0.285254,-0.41341 0.467155,-0.41341 0.161231,0 0.405143,0.0992 0.483691,0.45889 0.05374,0.23977 0.05374,0.57464 0.05374,0.85989 0,0.28526 0,0.60358 -0.04547,0.8599 -0.07855,0.46715 -0.343132,0.5457 -0.491961,0.5457 z m 0,0"
       style="fill:#000000;fill-opacity:1;fill-rule:nonzero;stroke:none;stroke-width:0.352778"
       aria-label="0" />
    <path
       id="path278"
       d="M 70.764453,100.28379 C 66.027897,98.273531 61.530714,97.578316 56.922526,99.635705"
       style="fill:none;stroke:#000000;stroke-width:0.140582;stroke-linecap:butt;stroke-linejoin:miter;stroke-miterlimit:10;stroke-dasharray:none;stroke-opacity:1" />
    <path
       id="path279"
       d="m 57.869716,100.13656 c -0.328269,-0.407687 -0.697452,-0.504578 -1.011368,-0.472197 0.233684,-0.212093 0.408023,-0.551637 0.323658,-1.068214"
       style="fill:none;stroke:#000000;stroke-width:0.140577;stroke-linecap:round;stroke-linejoin:round;stroke-miterlimit:10;stroke-dasharray:none;stroke-opacity:1" />
    <path
       id="path280"
       d="m 64.602774,96.287664 h -0.09508 c -0.0124,0.07028 -0.04547,0.30179 -0.08682,0.367936 -0.02894,0.04134 -0.268718,0.04134 -0.396875,0.04134 H 63.24265 c 0.115755,-0.09922 0.372071,-0.367936 0.483692,-0.471289 0.640787,-0.587044 0.876432,-0.806152 0.876432,-1.223698 0,-0.487826 -0.384473,-0.810286 -0.872298,-0.810286 -0.49196,0 -0.777214,0.417545 -0.777214,0.777213 0,0.214974 0.186035,0.214974 0.198438,0.214974 0.08682,0 0.198437,-0.06201 0.198437,-0.198437 0,-0.115756 -0.08268,-0.194304 -0.198437,-0.194304 -0.03721,0 -0.04547,0 -0.05788,0.0041 0.07855,-0.289388 0.305925,-0.483691 0.578776,-0.483691 0.359668,0 0.578776,0.30179 0.578776,0.690397 0,0.355534 -0.206706,0.669727 -0.446484,0.938444 l -0.851628,0.95498 v 0.09922 h 1.537891 z m 0,0"
       style="fill:#000000;fill-opacity:1;fill-rule:nonzero;stroke:none;stroke-width:0.352778"
       aria-label="2" />
    <path
       id="path281"
       d="m 75.590396,102.32242 c 5.104451,2.1467 9.950979,2.21533 14.92596,0.11082"
       style="fill:none;stroke:#000000;stroke-width:0.140582;stroke-linecap:butt;stroke-linejoin:miter;stroke-miterlimit:10;stroke-dasharray:none;stroke-opacity:1" />
    <path
       id="path282"
       d="m 89.579229,101.9138 c 0.320164,0.41409 0.687367,0.51824 1.001862,0.49206 -0.237824,0.20744 -0.418828,0.54348 -0.34467,1.06163"
       style="fill:none;stroke:#000000;stroke-width:0.140578;stroke-linecap:round;stroke-linejoin:round;stroke-miterlimit:10;stroke-dasharray:none;stroke-opacity:1" />
    <path
       id="path283"
       d="m 83.974201,106.78211 c 0,-0.3514 -0.02067,-0.69453 -0.173633,-1.01285 -0.173633,-0.3514 -0.475423,-0.44235 -0.682129,-0.44235 -0.243912,0 -0.545703,0.11988 -0.698665,0.47128 -0.119889,0.26459 -0.16123,0.52504 -0.16123,0.98392 0,0.40928 0.02894,0.71521 0.181901,1.01286 0.16123,0.32246 0.454752,0.42168 0.67386,0.42168 0.367936,0 0.578776,-0.21911 0.698666,-0.46302 0.152962,-0.31419 0.16123,-0.7276 0.16123,-0.97152 z m -0.859896,1.35186 c -0.136425,0 -0.409277,-0.0744 -0.487825,-0.53744 -0.04961,-0.25218 -0.04961,-0.5705 -0.04961,-0.86816 0,-0.34313 0,-0.65732 0.07028,-0.90537 0.07028,-0.28112 0.285254,-0.41341 0.467155,-0.41341 0.161231,0 0.405144,0.0992 0.483692,0.45888 0.05374,0.23978 0.05374,0.57465 0.05374,0.8599 0,0.28525 0,0.60358 -0.04548,0.8599 -0.07855,0.46715 -0.343132,0.5457 -0.49196,0.5457 z m 0,0"
       style="fill:#000000;fill-opacity:1;fill-rule:nonzero;stroke:none;stroke-width:0.352778"
       aria-label="0" />
    <path
       id="path284"
       d="m 75.590396,100.29278 c 5.104451,-2.146697 9.950979,-2.215333 14.92596,-0.11082"
       style="fill:none;stroke:#000000;stroke-width:0.140582;stroke-linecap:butt;stroke-linejoin:miter;stroke-miterlimit:10;stroke-dasharray:none;stroke-opacity:1" />
    <path
       id="path285"
       d="m 90.236421,99.147712 c -0.07416,0.518144 0.106846,0.854188 0.34467,1.061628 -0.314495,-0.0262 -0.681698,0.078 -1.001862,0.49206"
       style="fill:none;stroke:#000000;stroke-width:0.140578;stroke-linecap:round;stroke-linejoin:round;stroke-miterlimit:10;stroke-dasharray:none;stroke-opacity:1" />
    <path
       id="path286"
       d="m 83.30034,94.499659 c 0,-0.09508 0,-0.09922 -0.08682,-0.09922 -0.09922,0.111621 -0.310059,0.268717 -0.744141,0.268717 v 0.124024 c 0.09509,0 0.305925,0 0.537435,-0.111622 v 2.195215 c 0,0.152962 -0.0124,0.202572 -0.380338,0.202572 h -0.132292 v 0.124023 c 0.111621,-0.0083 0.520899,-0.0083 0.661458,-0.0083 0.14056,0 0.545704,0 0.657325,0.0083 v -0.124023 h -0.128158 c -0.37207,0 -0.384473,-0.04961 -0.384473,-0.202572 z m 0,0"
       style="fill:#000000;fill-opacity:1;fill-rule:nonzero;stroke:none;stroke-width:0.352778"
       aria-label="1" />
  </g>
</svg>
